<!-- icon666.com - MILLIONS OF FREE VECTOR ICONS --><svg enable-background="new 0 0 32 32" viewBox="0 0 32 32" xmlns="http://www.w3.org/2000/svg"><g id="cross_close"><path d="m27 31c-.256 0-.512-.098-.707-.293l-10.293-10.293-10.293 10.293c-.391.391-1.023.391-1.414 0l-3-3c-.391-.391-.391-1.023 0-1.414l10.293-10.293-10.293-10.293c-.391-.391-.391-1.023 0-1.414l3-3c.391-.391 1.023-.391 1.414 0l10.293 10.293 10.293-10.293c.391-.391 1.023-.391 1.414 0l3 3c.391.391.391 1.023 0 1.414l-10.293 10.293 10.293 10.293c.391.391.391 1.023 0 1.414l-3 3c-.195.195-.451.293-.707.293z"></path></g></svg>