<svg width="35" height="27" viewBox="0 0 35 27" fill="none" xmlns="http://www.w3.org/2000/svg">
<path d="M25.2139 0C27.0315 0 28.5804 0.307475 29.8604 0.921875C31.1403 1.51067 32.1003 2.31685 32.7402 3.34082C33.3802 4.36481 33.7002 5.51689 33.7002 6.79688C33.7002 8.38397 33.2649 9.7024 32.3945 10.752C31.5498 11.7758 30.4235 12.5187 29.0156 12.9795C29.9884 13.1331 30.8715 13.5299 31.665 14.1699C32.4841 14.8098 33.1242 15.6029 33.585 16.5498C34.0714 17.497 34.3145 18.5088 34.3145 19.584C34.3144 20.9407 33.9695 22.1697 33.2783 23.2705C32.5871 24.3457 31.5753 25.2028 30.2441 25.8428C28.9386 26.4571 27.3896 26.7646 25.5977 26.7646H8.7168C6.92486 26.7646 5.37589 26.4571 4.07031 25.8428C2.73913 25.2028 1.72733 24.3457 1.03613 23.2705C0.344956 22.1697 2.31745e-05 20.9407 0 19.584C0 18.5088 0.243092 17.497 0.729492 16.5498C1.19025 15.6029 1.8304 14.8098 2.64941 14.1699C3.443 13.5299 4.32605 13.1331 5.29883 12.9795C3.89092 12.5187 2.7647 11.7758 1.91992 10.752C1.04956 9.7024 0.6143 8.38397 0.614258 6.79688C0.614258 5.51689 0.934234 4.36481 1.57422 3.34082C2.2142 2.31685 3.17415 1.51067 4.4541 0.921875C5.7341 0.307475 7.28299 0 9.10059 0H25.2139ZM9.13867 14.4385C7.42354 14.4385 6.05424 14.8738 5.03027 15.7441C4.00627 16.5889 3.49414 17.7535 3.49414 19.2383C3.49415 20.6975 3.98033 21.8371 4.95312 22.6562C5.92588 23.4753 7.28281 23.8847 9.02344 23.8848H15.2061V14.4385H9.13867ZM19.1084 23.8848H25.291C27.0316 23.8847 28.3886 23.4753 29.3613 22.6562C30.3341 21.8371 30.8203 20.6975 30.8203 19.2383C30.8203 17.7535 30.3082 16.5889 29.2842 15.7441C28.2602 14.8738 26.8909 14.4385 25.1758 14.4385H19.1084V23.8848ZM9.40723 2.87988C7.71782 2.87994 6.42523 3.26429 5.5293 4.03223C4.63346 4.80016 4.18561 5.86217 4.18555 7.21875C4.18555 8.57555 4.6333 9.63825 5.5293 10.4062C6.42529 11.1742 7.69268 11.5586 9.33105 11.5586H15.2061V2.87988H9.40723ZM19.1084 11.5586H24.9834C26.6218 11.5586 27.8892 11.1742 28.7852 10.4062C29.6812 9.63825 30.1289 8.57555 30.1289 7.21875C30.1288 5.86217 29.681 4.80016 28.7852 4.03223C27.8892 3.26429 26.5966 2.87994 24.9072 2.87988H19.1084V11.5586Z" fill=""/>
</svg>
