<svg viewBox="0 0 301 234" fill="none" xmlns="http://www.w3.org/2000/svg">
<path d="M220.444 0C236.335 0 249.877 2.68603 261.067 8.05762C272.258 13.2054 280.652 20.2554 286.247 29.208C291.842 38.1606 294.64 48.233 294.64 59.4238C294.64 73.3001 290.835 84.8266 283.226 94.0029C275.84 102.956 265.991 109.446 253.682 113.475C262.187 114.818 269.908 118.287 276.847 123.883C284.009 129.478 289.604 136.416 293.633 144.697C297.885 152.978 300.012 161.819 300.012 171.22C300.012 183.082 296.99 193.825 290.947 203.449C284.904 212.849 276.063 220.347 264.425 225.942C253.01 231.314 239.469 234 223.802 234H76.209C60.542 234 47.0015 231.314 35.5869 225.942C23.9485 220.347 15.1075 212.849 9.06445 203.449C3.02144 193.825 2.17075e-05 183.082 0 171.22C0 161.819 2.1264 152.978 6.37891 144.697C10.4076 136.416 16.003 129.478 23.165 123.883C30.1033 118.287 37.8251 114.818 46.3301 113.475C34.0202 109.446 24.1721 102.956 16.7861 94.0029C9.17645 84.8266 5.37117 73.3002 5.37109 59.4238C5.37109 48.233 8.16924 38.1606 13.7646 29.208C19.36 20.2556 27.7528 13.2053 38.9434 8.05762C50.1342 2.68603 63.6755 0 79.5664 0H220.444ZM79.9023 126.232C64.9067 126.232 52.9321 130.038 43.9795 137.647C35.027 145.033 30.5508 155.217 30.5508 168.198C30.5508 180.956 34.8036 190.915 43.3086 198.077C51.8135 205.239 63.6753 208.82 78.8945 208.82H132.946V126.232H79.9023ZM167.064 208.82H221.116C236.336 208.82 248.198 205.239 256.703 198.077C265.208 190.915 269.461 180.956 269.461 168.198C269.461 155.217 264.984 145.033 256.031 137.647C247.079 130.038 235.105 126.232 220.109 126.232H167.064V208.82ZM82.252 25.1797C67.4802 25.1797 56.1773 28.5365 48.3438 35.251C40.5102 41.9654 36.5938 51.254 36.5938 63.1162C36.5938 74.9784 40.5103 84.267 48.3438 90.9814C56.1773 97.6959 67.2568 101.053 81.5811 101.053H132.946V25.1797H82.252ZM167.064 101.053H218.431C232.755 101.053 243.833 97.6959 251.667 90.9814C259.501 84.267 263.417 74.9785 263.417 63.1162C263.417 51.254 259.501 41.9654 251.667 35.251C243.833 28.5366 232.531 25.1797 217.759 25.1797H167.064V101.053Z"/>
</svg>
