<!-- icon666.com - MILLIONS OF FREE VECTOR ICONS --><svg id="Capa_1" enable-background="new 0 0 512 512" viewBox="0 0 512 512" xmlns="http://www.w3.org/2000/svg"><g><path d="m317.396 387.68c-2.782-4.173-7.466-6.68-12.481-6.68h-164.89v-190h35c11.98 0 19.126-13.352 12.481-23.32l-80-120c-5.937-8.906-19.024-8.906-24.961 0l-80 120c-6.646 9.968.5 23.32 12.481 23.32h35v205c0 41.421 33.579 75 75 75h219.889c11.98 0 19.126-13.352 12.481-23.32z"></path><path d="m496.975 321h-35v-205c0-41.421-33.579-75-75-75h-219.889c-11.98 0-19.126 13.352-12.481 23.32l39.999 60c2.782 4.173 7.465 6.68 12.481 6.68h164.89v190h-35c-11.98 0-19.126 13.352-12.481 23.32l80 120c5.937 8.906 19.024 8.906 24.961 0l80-120c6.646-9.968-.5-23.32-12.48-23.32z"></path></g></svg>